<svg xmlns="http://www.w3.org/2000/svg" width="320" height="200" viewBox="0 0 320 200"><defs><linearGradient id="skin" x1="0" y1="0" x2="0" y2="1"><stop stop-color="#1f8fa1"/><stop offset="1" stop-color="#0d6164"/></linearGradient><linearGradient id="flipper" x1="0" y1="0" x2="1" y2="1"><stop stop-color="#1f8fa1"/><stop offset="1" stop-color="#0d6164"/></linearGradient></defs><path d="M91 109 C63 111 54 78 26 75 Q20 96 48 112 Q24 111 17 137 Q47 147 68 124 L91 117Z" fill="url(#skin)" /><path d="M181 111 Q200 136 218 138 Q224 130 207 111Z" fill="#0d6164" /><path d="M139 80 Q147 49 157 53 L173 65Z" fill="url(#skin)" /><path d="M76 107 Q114 100 133 75 Q151 48 186 59 Q207 56 244 72 Q264 76 274 93 L280 99 Q278 124 243 139 Q187 160 143 139 Q108 121 76 118Z" fill="url(#skin)" /><path d="M89 116 Q163 150 227 126 Q261 122 281 105 Q276 134 231 145 Q162 160 122 133Z" fill="#a2dadc" /><path d="M118 95 Q178 62 229 73" fill="none" stroke="#1f8fa1" stroke-width="4" stroke-linecap="round" opacity=".6"/><path d="M185 123 Q181 132 189 142" fill="none" stroke="#0d6164" stroke-width="1.5" opacity=".45"/><path d="M198 123 Q194 132 199 142" fill="none" stroke="#0d6164" stroke-width="1.5" opacity=".45"/><path d="M211 123 Q207 132 209 142" fill="none" stroke="#0d6164" stroke-width="1.5" opacity=".45"/><path d="M224 123 Q220 132 219 142" fill="none" stroke="#0d6164" stroke-width="1.5" opacity=".45"/><path d="M237 123 Q233 132 229 142" fill="none" stroke="#0d6164" stroke-width="1.5" opacity=".45"/><circle cx="237" cy="78" r="2.5" fill="#a2dadc"/><circle cx="247" cy="82" r="2.5" fill="#a2dadc"/><circle cx="257" cy="86" r="2.5" fill="#a2dadc"/><circle cx="267" cy="90" r="2.5" fill="#a2dadc"/><path d="M179 121 Q159 164 111 176 Q98 173 108 161 L152 118Z" fill="url(#flipper)" /><ellipse cx="251" cy="95" rx="10" ry="11" fill="#ffffff"/><ellipse cx="254" cy="95" rx="5" ry="6.5" fill="#192424"/><circle cx="255" cy="92" r="2" fill="#ffffff"/><path d="M254 114 Q267 121 275 109" fill="none" stroke="#192424" stroke-width="2.5" stroke-linecap="round"/></svg>